<?xml version="1.0" standalone="no"?>
<!DOCTYPE svg PUBLIC "-//W3C//DTD SVG 20010904//EN"
 "http://www.w3.org/TR/2001/REC-SVG-20010904/DTD/svg10.dtd">
<svg version="1.0" xmlns="http://www.w3.org/2000/svg"
 width="1050.000000pt" height="1050.000000pt" viewBox="0 0 1050.000000 1050.000000"
 preserveAspectRatio="xMidYMid meet">
<metadata>
Created by potrace 1.11, written by Peter Selinger 2001-2013
</metadata>
<g transform="translate(0.000000,1050.000000) scale(0.100000,-0.100000)"
fill="#000000" stroke="none">
<path d="M7010 10489 c-99 -16 -138 -25 -230 -56 -83 -27 -250 -109 -320 -156
-101 -68 -244 -199 -327 -299 -52 -63 -274 -429 -334 -551 -8 -15 -38 -75 -67
-135 -192 -386 -340 -842 -426 -1317 -30 -168 -41 -244 -61 -430 -25 -236 -26
-766 -1 -925 2 -14 7 -56 10 -95 6 -65 9 -89 20 -177 6 -50 27 -200 31 -228 8
-53 18 -147 20 -185 6 -157 -146 -348 -324 -405 -95 -30 -100 -46 -26 -90 86
-51 163 -134 214 -230 62 -117 79 -237 97 -695 20 -507 -1 -894 -72 -1310 -9
-49 -18 -103 -21 -120 -19 -113 -77 -357 -149 -617 -47 -172 -213 -624 -305
-828 -81 -181 -307 -610 -349 -664 -5 -6 -30 -38 -56 -71 -113 -146 -306 -297
-469 -368 -77 -34 -163 -65 -195 -72 -8 -2 -33 -8 -55 -14 -22 -6 -60 -13 -85
-16 -25 -3 -55 -7 -67 -9 -12 -3 -37 -1 -55 5 -28 7 -42 23 -84 96 -150 258
-226 399 -231 427 -6 38 22 78 75 106 106 55 225 185 291 317 17 35 31 64 30
65 0 2 2 10 5 18 40 114 47 307 14 425 -64 233 -223 415 -438 502 -149 61
-272 71 -460 37 -54 -9 -169 -60 -233 -102 -102 -67 -217 -196 -260 -292 -66
-146 -79 -221 -74 -425 3 -89 7 -167 10 -171 2 -5 8 -31 11 -59 25 -188 131
-460 245 -625 228 -333 536 -566 893 -674 193 -58 285 -71 518 -70 213 0 296
11 478 59 310 83 551 247 805 549 164 196 376 492 470 656 55 96 112 197 132
235 12 23 27 50 33 60 42 76 178 377 214 474 11 31 25 67 31 81 6 14 11 30 13
35 1 6 18 55 37 110 32 90 110 350 122 404 3 11 7 29 9 39 3 9 12 51 21 92 9
41 19 84 21 95 4 18 9 43 29 150 11 60 46 301 50 345 2 25 8 86 12 135 16 185
8 856 -12 950 -3 11 -7 45 -10 75 -3 30 -9 78 -13 105 -13 92 -6 147 28 228
38 92 105 170 191 223 32 20 59 43 59 50 0 7 -32 23 -72 35 -139 44 -258 153
-306 281 -24 65 -29 92 -37 233 -4 61 -8 126 -10 146 -24 244 -24 976 0 1344
4 60 17 228 20 270 13 138 17 173 20 195 2 14 6 50 10 80 3 30 8 71 10 90 3
19 7 54 10 78 11 93 16 128 20 142 2 8 7 37 10 65 10 87 73 435 111 610 2 11
7 34 10 50 19 109 130 545 160 631 31 91 83 198 142 294 56 91 48 79 120 165
190 226 465 385 712 412 57 6 87 -15 125 -89 38 -72 48 -91 61 -108 6 -8 28
-46 49 -85 21 -38 49 -89 62 -113 40 -67 26 -101 -67 -159 -161 -102 -262
-293 -254 -482 3 -89 8 -113 35 -186 104 -279 422 -424 707 -325 186 65 325
232 361 431 29 165 -28 440 -135 652 -33 63 -111 180 -154 227 -18 19 -42 46
-54 60 -31 36 -153 141 -213 183 -126 88 -330 168 -518 202 -55 10 -310 13
-365 4z"/>
</g>
</svg>
